<svg width="296" height="291" viewBox="0 0 296 291" fill="none" xmlns="http://www.w3.org/2000/svg">
<path d="M217.276 220C220.037 219.961 222.244 217.691 222.205 214.93L221.578 169.935C221.539 167.173 219.27 164.966 216.508 165.005C213.747 165.043 211.54 167.313 211.579 170.074L212.137 210.07L172.141 210.628C169.379 210.667 167.172 212.936 167.211 215.698C167.249 218.459 169.519 220.666 172.28 220.627L217.276 220ZM159.22 165.585L186.47 192.085L193.442 184.915L166.192 158.415L159.22 165.585ZM186.47 192.085L213.72 218.585L220.692 211.415L193.442 184.915L186.47 192.085Z" fill="white" fill-opacity="0.25"/>
<path d="M290.276 289C293.037 288.961 295.244 286.691 295.205 283.93L294.578 238.935C294.539 236.173 292.27 233.966 289.508 234.005C286.747 234.043 284.54 236.313 284.579 239.074L285.137 279.07L245.141 279.628C242.379 279.667 240.172 281.936 240.211 284.698C240.249 287.459 242.519 289.666 245.28 289.627L290.276 289ZM232.22 234.585L259.47 261.085L266.442 253.915L239.192 227.415L232.22 234.585ZM259.47 261.085L286.72 287.585L293.692 280.415L266.442 253.915L259.47 261.085Z" fill="white" fill-opacity="0.25"/>
<path d="M58.2757 144C61.0369 143.961 63.244 141.691 63.2055 138.93L62.5777 93.9346C62.5392 91.1735 60.2696 88.9663 57.5084 89.0049C54.7473 89.0434 52.5401 91.313 52.5787 94.0741L53.1367 134.07L13.1406 134.628C10.3794 134.667 8.17232 136.936 8.21084 139.698C8.24936 142.459 10.519 144.666 13.2801 144.627L58.2757 144ZM0.220239 89.5845L27.4702 116.085L34.4419 108.915L7.19197 82.4155L0.220239 89.5845ZM27.4702 116.085L54.7201 142.585L61.6918 135.415L34.4419 108.915L27.4702 116.085Z" fill="#099C0F" fill-opacity="0.25"/>
<path d="M216.276 136C219.037 135.961 221.244 133.691 221.205 130.93L220.578 85.9346C220.539 83.1735 218.27 80.9663 215.508 81.0049C212.747 81.0434 210.54 83.313 210.579 86.0741L211.137 126.07L171.141 126.628C168.379 126.667 166.172 128.936 166.211 131.698C166.249 134.459 168.519 136.666 171.28 136.627L216.276 136ZM158.22 81.5845L185.47 108.085L192.442 100.915L165.192 74.4155L158.22 81.5845ZM185.47 108.085L212.72 134.585L219.692 127.415L192.442 100.915L185.47 108.085Z" fill="#FA0E0E" fill-opacity="0.25"/>
<path d="M215.276 290C218.037 289.961 220.244 287.691 220.205 284.93L219.578 239.935C219.539 237.173 217.27 234.966 214.508 235.005C211.747 235.043 209.54 237.313 209.579 240.074L210.137 280.07L170.141 280.628C167.379 280.667 165.172 282.936 165.211 285.698C165.249 288.459 167.519 290.666 170.28 290.627L215.276 290ZM157.22 235.585L184.47 262.085L191.442 254.915L164.192 228.415L157.22 235.585ZM184.47 262.085L211.72 288.585L218.692 281.415L191.442 254.915L184.47 262.085Z" fill="#099C0F" fill-opacity="0.25"/>
<path d="M289.276 205C292.037 204.961 294.244 202.691 294.205 199.93L293.578 154.935C293.539 152.173 291.27 149.966 288.508 150.005C285.747 150.043 283.54 152.313 283.579 155.074L284.137 195.07L244.141 195.628C241.379 195.667 239.172 197.936 239.211 200.698C239.249 203.459 241.519 205.666 244.28 205.627L289.276 205ZM231.22 150.585L258.47 177.085L265.442 169.915L238.192 143.415L231.22 150.585ZM258.47 177.085L285.72 203.585L292.692 196.415L265.442 169.915L258.47 177.085Z" fill="#FA0E0E" fill-opacity="0.25"/>
<path d="M138.276 220C141.037 219.961 143.244 217.691 143.205 214.93L142.578 169.935C142.539 167.173 140.27 164.966 137.508 165.005C134.747 165.043 132.54 167.313 132.579 170.074L133.137 210.07L93.1406 210.628C90.3794 210.667 88.1723 212.936 88.2108 215.698C88.2494 218.459 90.519 220.666 93.2801 220.627L138.276 220ZM80.2202 165.585L107.47 192.085L114.442 184.915L87.192 158.415L80.2202 165.585ZM107.47 192.085L134.72 218.585L141.692 211.415L114.442 184.915L107.47 192.085Z" fill="#099C0F" fill-opacity="0.25"/>
<path d="M140.276 61.9995C143.037 61.961 145.244 59.6914 145.205 56.9303L144.578 11.9346C144.539 9.17347 142.27 6.96635 139.508 7.00487C136.747 7.0434 134.54 9.31298 134.579 12.0741L135.137 52.0702L95.1406 52.6283C92.3794 52.6668 90.1723 54.9364 90.2108 57.6976C90.2494 60.4587 92.519 62.6658 95.2801 62.6273L140.276 61.9995ZM82.2202 7.58452L109.47 34.0845L116.442 26.9155L89.192 0.415492L82.2202 7.58452ZM109.47 34.0845L136.72 60.5845L143.692 53.4155L116.442 26.9155L109.47 34.0845Z" fill="#FA0E0E" fill-opacity="0.25"/>
<path d="M140.276 143C143.037 142.961 145.244 140.691 145.205 137.93L144.578 92.9346C144.539 90.1735 142.27 87.9663 139.508 88.0049C136.747 88.0434 134.54 90.313 134.579 93.0741L135.137 133.07L95.1406 133.628C92.3794 133.667 90.1723 135.936 90.2108 138.698C90.2494 141.459 92.519 143.666 95.2801 143.627L140.276 143ZM82.2202 88.5845L109.47 115.085L116.442 107.915L89.192 81.4155L82.2202 88.5845ZM109.47 115.085L136.72 141.585L143.692 134.415L116.442 107.915L109.47 115.085Z" fill="white" fill-opacity="0.25"/>
</svg>
