<svg width="235" height="211" viewBox="0 0 235 211" fill="none" xmlns="http://www.w3.org/2000/svg">
<path d="M146.276 135C149.037 134.961 151.244 132.691 151.206 129.93L150.578 84.9347C150.539 82.1735 148.27 79.9664 145.508 80.0049C142.747 80.0435 140.54 82.313 140.579 85.0742L141.137 125.07L101.141 125.628C98.3795 125.667 96.1723 127.936 96.2109 130.698C96.2494 133.459 98.519 135.666 101.28 135.627L146.276 135ZM88.2203 80.5846L115.47 107.085L122.442 99.9156L95.192 73.4156L88.2203 80.5846ZM115.47 107.085L142.72 133.585L149.692 126.416L122.442 99.9156L115.47 107.085Z" fill="#099C0F" fill-opacity="0.25"/>
<g filter="url(#filter0_d_13_686)">
<path d="M62.2758 61.9995C65.0369 61.9609 67.244 59.6913 67.2055 56.9302L66.5777 11.9346C66.5392 9.17341 64.2696 6.96629 61.5085 7.00481C58.7473 7.04333 56.5402 9.31292 56.5787 12.0741L57.1367 52.0702L17.1406 52.6282C14.3795 52.6667 12.1723 54.9363 12.2109 57.6975C12.2494 60.4586 14.519 62.6658 17.2801 62.6273L62.2758 61.9995ZM4.22027 7.58446L31.4702 34.0845L38.4419 26.9154L11.192 0.415431L4.22027 7.58446ZM31.4702 34.0845L58.7201 60.5845L65.6919 53.4154L38.4419 26.9154L31.4702 34.0845Z" fill="#099C0F" fill-opacity="0.25"/>
</g>
<path d="M146.276 61.9995C149.037 61.9609 151.244 59.6913 151.206 56.9302L150.578 11.9346C150.539 9.17341 148.27 6.96629 145.508 7.00481C142.747 7.04333 140.54 9.31292 140.579 12.0741L141.137 52.0702L101.141 52.6282C98.3795 52.6667 96.1723 54.9363 96.2109 57.6975C96.2494 60.4586 98.519 62.6658 101.28 62.6273L146.276 61.9995ZM88.2203 7.58446L115.47 34.0845L122.442 26.9154L95.192 0.415431L88.2203 7.58446ZM115.47 34.0845L142.72 60.5845L149.692 53.4154L122.442 26.9154L115.47 34.0845Z" fill="white" fill-opacity="0.25"/>
<path d="M228.276 210C231.037 209.961 233.244 207.691 233.206 204.93L232.578 159.935C232.539 157.174 230.27 154.966 227.508 155.005C224.747 155.043 222.54 157.313 222.579 160.074L223.137 200.07L183.141 200.628C180.379 200.667 178.172 202.936 178.211 205.698C178.249 208.459 180.519 210.666 183.28 210.627L228.276 210ZM170.22 155.585L197.47 182.085L204.442 174.916L177.192 148.416L170.22 155.585ZM197.47 182.085L224.72 208.585L231.692 201.416L204.442 174.916L197.47 182.085Z" fill="#099C0F" fill-opacity="0.25"/>
<path d="M228.276 61.9996C231.037 61.9611 233.244 59.6915 233.206 56.9303L232.578 11.9347C232.539 9.17354 230.27 6.96641 227.508 7.00493C224.747 7.04346 222.54 9.31305 222.579 12.0742L223.137 52.0703L183.141 52.6283C180.379 52.6669 178.172 54.9365 178.211 57.6976C178.249 60.4588 180.519 62.6659 183.28 62.6274L228.276 61.9996ZM170.22 7.58458L197.47 34.0846L204.442 26.9156L177.192 0.415553L170.22 7.58458ZM197.47 34.0846L224.72 60.5846L231.692 53.4155L204.442 26.9156L197.47 34.0846Z" fill="#FA0E0E" fill-opacity="0.25"/>
<path d="M229.276 134C232.037 133.961 234.244 131.691 234.206 128.93L233.578 83.9347C233.539 81.1735 231.27 78.9664 228.508 79.0049C225.747 79.0435 223.54 81.313 223.579 84.0742L224.137 124.07L184.141 124.628C181.379 124.667 179.172 126.936 179.211 129.698C179.249 132.459 181.519 134.666 184.28 134.627L229.276 134ZM171.22 79.5846L198.47 106.085L205.442 98.9156L178.192 72.4156L171.22 79.5846ZM198.47 106.085L225.72 132.585L232.692 125.416L205.442 98.9156L198.47 106.085Z" fill="white" fill-opacity="0.25"/>
<defs>
<filter id="filter0_d_13_686" x="0.22027" y="0.415405" width="70.9857" height="70.2124" filterUnits="userSpaceOnUse" color-interpolation-filters="sRGB">
<feFlood flood-opacity="0" result="BackgroundImageFix"/>
<feColorMatrix in="SourceAlpha" type="matrix" values="0 0 0 0 0 0 0 0 0 0 0 0 0 0 0 0 0 0 127 0" result="hardAlpha"/>
<feOffset dy="4"/>
<feGaussianBlur stdDeviation="2"/>
<feComposite in2="hardAlpha" operator="out"/>
<feColorMatrix type="matrix" values="0 0 0 0 0 0 0 0 0 0 0 0 0 0 0 0 0 0 0.25 0"/>
<feBlend mode="normal" in2="BackgroundImageFix" result="effect1_dropShadow_13_686"/>
<feBlend mode="normal" in="SourceGraphic" in2="effect1_dropShadow_13_686" result="shape"/>
</filter>
</defs>
</svg>
