<svg width="377" height="211" viewBox="0 0 377 211" fill="none" xmlns="http://www.w3.org/2000/svg">
<path d="M244.635 134.999C241.873 134.961 239.666 132.691 239.705 129.93L240.332 84.9346C240.371 82.1734 242.641 79.9663 245.402 80.0048C248.163 80.0433 250.37 82.3129 250.332 85.0741L249.774 125.07L289.77 125.628C292.531 125.667 294.738 127.936 294.699 130.697C294.661 133.459 292.391 135.666 289.63 135.627L244.635 134.999ZM302.69 80.5845L275.44 107.084L268.468 99.9154L295.718 73.4154L302.69 80.5845ZM275.44 107.084L248.19 133.584L241.218 126.415L268.468 99.9154L275.44 107.084Z" fill="#099C0F" fill-opacity="0.25"/>
<path d="M318.636 63.9995C315.875 63.9609 313.668 61.6913 313.707 58.9302L314.334 13.9346C314.373 11.1734 316.642 8.96629 319.404 9.00481C322.165 9.04333 324.372 11.3129 324.333 14.0741L323.775 54.0702L363.772 54.6282C366.533 54.6667 368.74 56.9363 368.701 59.6974C368.663 62.4586 366.393 64.6657 363.632 64.6272L318.636 63.9995ZM376.692 9.58445L349.442 36.0845L342.47 28.9154L369.72 2.41544L376.692 9.58445ZM349.442 36.0845L322.192 62.5845L315.22 55.4154L342.47 28.9154L349.442 36.0845Z" fill="#099C0F" fill-opacity="0.25"/>
<path d="M78.635 132.999C75.8739 132.961 73.6668 130.691 73.7053 127.93L74.333 82.9346C74.3715 80.1734 76.6411 77.9663 79.4023 78.0048C82.1634 78.0433 84.3706 80.3129 84.332 83.0741L83.7741 123.07L123.77 123.628C126.531 123.667 128.738 125.936 128.7 128.697C128.661 131.459 126.392 133.666 123.631 133.627L78.635 132.999ZM136.69 78.5845L109.441 105.084L102.469 97.9154L129.719 71.4154L136.69 78.5845ZM109.441 105.084L82.1907 131.584L75.2189 124.415L102.469 97.9154L109.441 105.084Z" fill="#FA0E0E" fill-opacity="0.25"/>
<path d="M5.63638 208C2.87523 207.961 0.668099 205.691 0.706619 202.93L1.33435 157.935C1.37287 155.174 3.64246 152.966 6.40361 153.005C9.16477 153.043 11.3719 155.313 11.3334 158.074L10.7754 198.07L50.7715 198.628C53.5327 198.667 55.7398 200.936 55.7013 203.698C55.6627 206.459 53.3932 208.666 50.632 208.627L5.63638 208ZM63.6917 153.585L36.4419 180.085L29.4701 172.916L56.72 146.416L63.6917 153.585ZM36.4419 180.085L9.192 206.585L2.22026 199.416L29.4701 172.916L36.4419 180.085Z" fill="#FA0E0E" fill-opacity="0.25"/>
<path d="M82.635 209C79.8738 208.961 77.6667 206.691 77.7052 203.93L78.3329 158.935C78.3714 156.174 80.641 153.966 83.4022 154.005C86.1633 154.043 88.3705 156.313 88.3319 159.074L87.774 199.07L127.77 199.628C130.531 199.667 132.738 201.936 132.7 204.698C132.661 207.459 130.392 209.666 127.631 209.627L82.635 209ZM140.69 154.585L113.44 181.085L106.469 173.916L133.719 147.416L140.69 154.585ZM113.44 181.085L86.1906 207.585L79.2188 200.416L106.469 173.916L113.44 181.085Z" fill="white" fill-opacity="0.25"/>
<path d="M235.635 63.9996C232.873 63.9611 230.666 61.6915 230.705 58.9303L231.332 13.9347C231.371 11.1735 233.641 8.96641 236.402 9.00493C239.163 9.04345 241.37 11.313 241.332 14.0742L240.774 54.0703L280.77 54.6283C283.531 54.6668 285.738 56.9364 285.699 59.6975C285.661 62.4587 283.391 64.6658 280.63 64.6273L235.635 63.9996ZM293.69 9.58458L266.44 36.0846L259.468 28.9156L286.718 2.41556L293.69 9.58458ZM266.44 36.0846L239.19 62.5846L232.218 55.4156L259.468 28.9156L266.44 36.0846Z" fill="white" fill-opacity="0.25"/>
<path d="M162.635 210C159.874 209.961 157.667 207.691 157.705 204.93L158.333 159.935C158.371 157.174 160.641 154.966 163.402 155.005C166.163 155.043 168.37 157.313 168.332 160.074L167.774 200.07L207.77 200.628C210.531 200.667 212.738 202.936 212.7 205.698C212.661 208.459 210.392 210.666 207.63 210.627L162.635 210ZM220.69 155.585L193.44 182.085L186.469 174.916L213.718 148.416L220.69 155.585ZM193.44 182.085L166.19 208.585L159.219 201.416L186.469 174.916L193.44 182.085Z" fill="#099C0F" fill-opacity="0.25"/>
<path d="M152.635 61.9995C149.874 61.9609 147.667 59.6913 147.705 56.9302L148.333 11.9346C148.371 9.17342 150.641 6.96629 153.402 7.00481C156.163 7.04333 158.37 9.31291 158.332 12.0741L157.774 52.0702L197.77 52.6282C200.531 52.6667 202.738 54.9363 202.7 57.6974C202.661 60.4586 200.392 62.6657 197.63 62.6272L152.635 61.9995ZM210.69 7.58445L183.44 34.0845L176.469 26.9154L203.718 0.415436L210.69 7.58445ZM183.44 34.0845L156.19 60.5845L149.219 53.4154L176.469 26.9154L183.44 34.0845Z" fill="#FA0E0E" fill-opacity="0.25"/>
<path d="M161.635 133.999C158.874 133.961 156.667 131.691 156.705 128.93L157.333 83.9346C157.371 81.1734 159.641 78.9663 162.402 79.0048C165.163 79.0433 167.37 81.3129 167.332 84.0741L166.774 124.07L206.77 124.628C209.531 124.667 211.738 126.936 211.7 129.697C211.661 132.459 209.392 134.666 206.63 134.627L161.635 133.999ZM219.69 79.5845L192.44 106.084L185.469 98.9154L212.718 72.4154L219.69 79.5845ZM192.44 106.084L165.19 132.584L158.219 125.415L185.469 98.9154L192.44 106.084Z" fill="white" fill-opacity="0.25"/>
</svg>
