<svg width="373" height="216" viewBox="0 0 373 216" fill="none" xmlns="http://www.w3.org/2000/svg">
<path d="M295.276 215C298.037 214.961 300.244 212.691 300.206 209.93L299.578 164.935C299.539 162.174 297.27 159.966 294.508 160.005C291.747 160.043 289.54 162.313 289.579 165.074L290.137 205.07L250.141 205.628C247.38 205.667 245.172 207.936 245.211 210.698C245.249 213.459 247.519 215.666 250.28 215.627L295.276 215ZM237.22 160.585L264.47 187.085L271.442 179.916L244.192 153.416L237.22 160.585ZM264.47 187.085L291.72 213.585L298.692 206.416L271.442 179.916L264.47 187.085Z" fill="white" fill-opacity="0.25"/>
<path d="M134.276 140C137.037 139.961 139.244 137.691 139.206 134.93L138.578 89.9347C138.539 87.1735 136.27 84.9664 133.508 85.0049C130.747 85.0435 128.54 87.313 128.579 90.0742L129.137 130.07L89.1407 130.628C86.3795 130.667 84.1724 132.936 84.2109 135.698C84.2494 138.459 86.519 140.666 89.2802 140.627L134.276 140ZM76.2203 85.5846L103.47 112.085L110.442 104.916L83.192 78.4156L76.2203 85.5846ZM103.47 112.085L130.72 138.585L137.692 131.416L110.442 104.916L103.47 112.085Z" fill="#099C0F" fill-opacity="0.25"/>
<path d="M58.2757 62.9996C61.0369 62.9611 63.244 60.6915 63.2055 57.9303L62.5777 12.9347C62.5392 10.1735 60.2696 7.96641 57.5084 8.00493C54.7473 8.04346 52.5401 10.313 52.5787 13.0742L53.1367 53.0703L13.1406 53.6283C10.3794 53.6669 8.17232 55.9365 8.21084 58.6976C8.24936 61.4588 10.519 63.6659 13.2801 63.6274L58.2757 62.9996ZM0.220239 8.58458L27.4702 35.0846L34.4419 27.9156L7.19197 1.41555L0.220239 8.58458ZM27.4702 35.0846L54.7201 61.5846L61.6918 54.4155L34.4419 27.9156L27.4702 35.0846Z" fill="#099C0F" fill-opacity="0.25"/>
<path d="M294.276 139C297.037 138.961 299.244 136.691 299.206 133.93L298.578 88.9347C298.539 86.1735 296.27 83.9664 293.508 84.0049C290.747 84.0435 288.54 86.313 288.579 89.0742L289.137 129.07L249.141 129.628C246.38 129.667 244.172 131.936 244.211 134.698C244.249 137.459 246.519 139.666 249.28 139.627L294.276 139ZM236.22 84.5846L263.47 111.085L270.442 103.916L243.192 77.4156L236.22 84.5846ZM263.47 111.085L290.72 137.585L297.692 130.416L270.442 103.916L263.47 111.085Z" fill="#FA0E0E" fill-opacity="0.25"/>
<path d="M367.276 215C370.037 214.961 372.244 212.691 372.206 209.93L371.578 164.935C371.539 162.174 369.27 159.966 366.508 160.005C363.747 160.043 361.54 162.313 361.579 165.074L362.137 205.07L322.141 205.628C319.38 205.667 317.172 207.936 317.211 210.698C317.249 213.459 319.519 215.666 322.28 215.627L367.276 215ZM309.22 160.585L336.47 187.085L343.442 179.916L316.192 153.416L309.22 160.585ZM336.47 187.085L363.72 213.585L370.692 206.416L343.442 179.916L336.47 187.085Z" fill="#FA0E0E" fill-opacity="0.25"/>
<path d="M216.276 215C219.037 214.961 221.244 212.691 221.206 209.93L220.578 164.935C220.539 162.174 218.27 159.966 215.508 160.005C212.747 160.043 210.54 162.313 210.579 165.074L211.137 205.07L171.141 205.628C168.38 205.667 166.172 207.936 166.211 210.698C166.249 213.459 168.519 215.666 171.28 215.627L216.276 215ZM158.22 160.585L185.47 187.085L192.442 179.916L165.192 153.416L158.22 160.585ZM185.47 187.085L212.72 213.585L219.692 206.416L192.442 179.916L185.47 187.085Z" fill="#099C0F" fill-opacity="0.25"/>
<path d="M218.276 61.9996C221.037 61.9611 223.244 59.6915 223.206 56.9303L222.578 11.9347C222.539 9.17354 220.27 6.96641 217.508 7.00493C214.747 7.04346 212.54 9.31305 212.579 12.0742L213.137 52.0703L173.141 52.6283C170.38 52.6669 168.172 54.9365 168.211 57.6976C168.249 60.4588 170.519 62.6659 173.28 62.6274L218.276 61.9996ZM160.22 7.58458L187.47 34.0846L194.442 26.9156L167.192 0.415553L160.22 7.58458ZM187.47 34.0846L214.72 60.5846L221.692 53.4155L194.442 26.9156L187.47 34.0846Z" fill="#FA0E0E" fill-opacity="0.25"/>
<path d="M217.276 139C220.037 138.961 222.244 136.691 222.206 133.93L221.578 88.9347C221.539 86.1735 219.27 83.9664 216.508 84.0049C213.747 84.0435 211.54 86.313 211.579 89.0742L212.137 129.07L172.141 129.628C169.38 129.667 167.172 131.936 167.211 134.698C167.249 137.459 169.519 139.666 172.28 139.627L217.276 139ZM159.22 84.5846L186.47 111.085L193.442 103.916L166.192 77.4156L159.22 84.5846ZM186.47 111.085L213.72 137.585L220.692 130.416L193.442 103.916L186.47 111.085Z" fill="white" fill-opacity="0.25"/>
<path d="M138.276 61.9996C141.037 61.9611 143.244 59.6915 143.205 56.9303L142.578 11.9347C142.539 9.17354 140.27 6.96641 137.508 7.00493C134.747 7.04346 132.54 9.31305 132.579 12.0742L133.137 52.0703L93.1406 52.6283C90.3794 52.6669 88.1723 54.9365 88.2108 57.6976C88.2494 60.4588 90.519 62.6659 93.2801 62.6274L138.276 61.9996ZM80.2202 7.58458L107.47 34.0846L114.442 26.9156L87.192 0.415553L80.2202 7.58458ZM107.47 34.0846L134.72 60.5846L141.692 53.4155L114.442 26.9156L107.47 34.0846Z" fill="white" fill-opacity="0.25"/>
</svg>
