<svg width="345" height="259" viewBox="0 0 345 259" fill="none" xmlns="http://www.w3.org/2000/svg">
<path d="M249.512 176.178C252.093 175.198 253.391 172.311 252.411 169.729L236.439 127.659C235.459 125.078 232.571 123.779 229.99 124.759C227.408 125.74 226.11 128.627 227.09 131.209L241.288 168.604L203.892 182.802C201.311 183.782 200.012 186.669 200.992 189.251C201.973 191.833 204.86 193.131 207.442 192.151L249.512 176.178ZM176.351 144.889L211.019 160.477L215.12 151.356L180.452 135.768L176.351 144.889ZM211.019 160.477L245.686 176.064L249.787 166.944L215.12 151.356L211.019 160.477Z" fill="white" fill-opacity="0.25"/>
<path d="M341.702 216.065C344.284 215.085 345.582 212.197 344.602 209.616L328.629 167.546C327.649 164.964 324.762 163.666 322.18 164.646C319.599 165.626 318.3 168.513 319.28 171.095L333.478 208.491L296.083 222.688C293.501 223.668 292.203 226.556 293.183 229.137C294.163 231.719 297.05 233.017 299.632 232.037L341.702 216.065ZM268.542 184.775L303.209 200.363L307.31 191.243L272.643 175.655L268.542 184.775ZM303.209 200.363L337.877 215.951L341.978 206.83L307.31 191.243L303.209 200.363Z" fill="white" fill-opacity="0.25"/>
<path d="M74.1098 159.114C76.6914 158.134 77.9896 155.246 77.0095 152.665L61.0371 110.595C60.057 108.013 57.1696 106.715 54.5879 107.695C52.0063 108.675 50.7081 111.563 51.6882 114.144L65.8859 151.54L28.4904 165.737C25.9087 166.718 24.6105 169.605 25.5906 172.187C26.5708 174.768 29.4582 176.066 32.0398 175.086L74.1098 159.114ZM0.949586 127.825L35.6171 143.412L39.7179 134.292L5.05042 118.704L0.949586 127.825ZM35.6171 143.412L70.2846 159L74.3855 149.879L39.7179 134.292L35.6171 143.412Z" fill="#099C0F" fill-opacity="0.25"/>
<path d="M219.855 97.5812C222.437 96.6011 223.735 93.7137 222.755 91.1321L206.783 49.0621C205.802 46.4805 202.915 45.1822 200.333 46.1624C197.752 47.1425 196.454 50.0299 197.434 52.6115L211.631 90.0071L174.236 104.205C171.654 105.185 170.356 108.072 171.336 110.654C172.316 113.236 175.204 114.534 177.785 113.554L219.855 97.5812ZM146.695 66.2919L181.363 81.8795L185.463 72.759L150.796 57.1714L146.695 66.2919ZM181.363 81.8795L216.03 97.467L220.131 88.3465L185.463 72.759L181.363 81.8795Z" fill="#FA0E0E" fill-opacity="0.25"/>
<path d="M271.563 242.644C274.144 241.664 275.443 238.777 274.462 236.195L258.49 194.125C257.51 191.544 254.622 190.245 252.041 191.226C249.459 192.206 248.161 195.093 249.141 197.675L263.339 235.07L225.943 249.268C223.362 250.248 222.063 253.135 223.044 255.717C224.024 258.299 226.911 259.597 229.493 258.617L271.563 242.644ZM198.403 211.355L233.07 226.943L237.171 217.822L202.503 202.235L198.403 211.355ZM233.07 226.943L267.738 242.53L271.838 233.41L237.171 217.822L233.07 226.943Z" fill="#099C0F" fill-opacity="0.25"/>
<path d="M312.046 137.468C314.627 136.488 315.925 133.6 314.945 131.019L298.973 88.9486C297.993 86.367 295.105 85.0688 292.524 86.0489C289.942 87.029 288.644 89.9164 289.624 92.4981L303.822 129.894L266.426 144.091C263.845 145.071 262.546 147.959 263.526 150.54C264.507 153.122 267.394 154.42 269.976 153.44L312.046 137.468ZM238.885 106.178L273.553 121.766L277.654 112.646L242.986 97.058L238.885 106.178ZM273.553 121.766L308.22 137.354L312.321 128.233L277.654 112.646L273.553 121.766Z" fill="#FA0E0E" fill-opacity="0.25"/>
<path d="M175.271 203.186C177.853 202.205 179.151 199.318 178.171 196.736L162.199 154.666C161.219 152.085 158.331 150.787 155.75 151.767C153.168 152.747 151.87 155.634 152.85 158.216L167.048 195.611L129.652 209.809C127.07 210.789 125.772 213.677 126.752 216.258C127.732 218.84 130.62 220.138 133.201 219.158L175.271 203.186ZM102.111 171.896L136.779 187.484L140.88 178.363L106.212 162.776L102.111 171.896ZM136.779 187.484L171.446 203.071L175.547 193.951L140.88 178.363L136.779 187.484Z" fill="#099C0F" fill-opacity="0.25"/>
<path d="M123.136 54.0215C125.718 53.0413 127.016 50.1539 126.036 47.5723L110.064 5.50234C109.084 2.92072 106.196 1.62247 103.614 2.60261C101.033 3.58276 99.7346 6.47014 100.715 9.05176L114.912 46.4473L77.5169 60.645C74.9353 61.6251 73.637 64.5125 74.6172 67.0941C75.5973 69.6758 78.4847 70.974 81.0663 69.9939L123.136 54.0215ZM49.9761 22.7322L84.6437 38.3197L88.7445 29.1992L54.077 13.6117L49.9761 22.7322ZM84.6437 38.3197L119.311 53.9073L123.412 44.7868L88.7445 29.1992L84.6437 38.3197Z" fill="#FA0E0E" fill-opacity="0.25"/>
<path d="M150.827 130.141C153.409 129.161 154.707 126.274 153.727 123.692L137.755 81.6221C136.774 79.0405 133.887 77.7422 131.305 78.7224C128.724 79.7025 127.426 82.5899 128.406 85.1715L142.603 122.567L105.208 136.765C102.626 137.745 101.328 140.632 102.308 143.214C103.288 145.796 106.176 147.094 108.757 146.114L150.827 130.141ZM77.6671 98.8519L112.335 114.439L116.435 105.319L81.768 89.7314L77.6671 98.8519ZM112.335 114.439L147.002 130.027L151.103 120.907L116.435 105.319L112.335 114.439Z" fill="white" fill-opacity="0.25"/>
</svg>
